# xmcd
#
# Track frame offsets: 
#        150
#        10665
#        23342
#        39992
#        53921
#        66017
#        77146
#        93105
#        105032
#        121874
#        131205
#        144293
#        151422
#        160965
#        172211
#
# Disc length: 2454 seconds
#
# Revision: 0
# Processed by: cddbd v1.5.2PL0 Copyright (c) Steve Scherf et al.
# Submitted via: ExactAudioCopy v1.3
#
DISCID=ad09940f
DTITLE=Andy Fairweather Low and The Low Riders - Listen Here
DYEAR=2017
DGENRE=Pop
TTITLE0=Bye Bye Johnny
TTITLE1=Got Love If You Want It
TTITLE2=I'll Be Your Baby Tonight
TTITLE3=So Glad You're Mine
TTITLE4=Putting On The Style
TTITLE5=Route 66
TTITLE6=Vhitlins Con Carne
TTITLE7=I'll Get You
TTITLE8=The Ship Titanic
TTITLE9=Listen Here
TTITLE10=If I Ever Get Lucky
TTITLE11=Matchbox
TTITLE12=Tough Beat
TTITLE13=Mystery Train
TTITLE14=Petite Fleur
EXTD=
EXTT0=
EXTT1=
EXTT2=
EXTT3=
EXTT4=
EXTT5=
EXTT6=
EXTT7=
EXTT8=
EXTT9=
EXTT10=
EXTT11=
EXTT12=
EXTT13=
EXTT14=
PLAYORDER=
